<svg id="Layer_5" enable-background="new 0 0 64 64" height="512" viewBox="0 0 64 64" width="512" xmlns="http://www.w3.org/2000/svg"><g><g><g><path d="m31 9c0 1-.25 2.2-.5 3.13-.25.94-.5 1.63-.5 1.63l-.01.01c-.53-.48-1.22-.77-1.99-.77h-1v-2c-2.56 0-5.02-1.02-6.83-2.83l-.17-.17-.17.17c-.91.91-1.97 1.61-3.13 2.09s-2.42.74-3.7.74v2h-1c-.77 0-1.47.29-2 .77l-.85-3.19c-.1-.39-.15-.78-.15-1.18 0-1.02.32-1.98.88-2.78s1.36-1.43 2.32-1.78l6.58-2.39c.81-.3 1.66-.45 2.52-.45 1.16 0 2.3.28 3.31.78 1.01.51 1.91 1.25 2.61 2.18l.78 1.04c.83 0 1.58.34 2.12.88s.88 1.29.88 2.12z" fill="#b27946"/></g><g><path d="m36 42v-10c0-.38.03-.75.1-1.1-.75-.93-1.7-1.7-2.8-2.25-.86-.43-1.79-.71-2.74-.83l-3.7-.46-.86 6.64-6-2-6 2-.86-6.64-3.7.46c-.95.12-1.88.4-2.74.83-1.44.72-2.62 1.81-3.43 3.13s-1.27 2.86-1.27 4.47v10.75c0 1.66 1.34 3 3 3h3v12h12 5c0-1.66.67-3.16 1.76-4.24 1.08-1.09 2.58-1.76 4.24-1.76h1v-2c0-1.1.9-2 2-2h4v-1-5-4z" fill="#e6e9ed"/></g><g><path d="m22 50v3c0 1.33-.86 2.45-2.06 2.84-.29.11-.61.16-.94.16-.83 0-1.58-.34-2.12-.88s-.88-1.29-.88-2.12v-3h4z" fill="#69d6f4"/></g><g><path d="m22 38v6h-2-4v-6h4z" fill="#69d6f4"/></g><g><path d="m27 13v3c0 .71-.06 1.38-.18 2h-4.99c-.53 0-1.04-.21-1.42-.59l-.41-.41-.41.41c-.38.38-.89.59-1.42.59h-4.99c-.12-.62-.18-1.29-.18-2v-3z" fill="#69d6f4"/></g><g><path d="m22 44h1c.83 0 1.58.34 2.12.88s.88 1.29.88 2.12c0 1.66-1.34 3-3 3h-1-2v-6z" fill="#f0d0b4"/></g><g><path d="m28 19h-1.42c.1-.32.18-.65.24-1 .12-.62.18-1.29.18-2v-3h1c.77 0 1.46.29 1.99.77.62.53 1.01 1.34 1.01 2.23 0 .83-.34 1.58-.88 2.12s-1.29.88-2.12.88z" fill="#f0d0b4"/></g><g><path d="m13.18 18c.06.35.14.68.24 1h-1.42c-.83 0-1.58-.34-2.12-.88s-.88-1.29-.88-2.12c0-.89.38-1.69 1-2.23.53-.48 1.23-.77 2-.77h1v3c0 .71.06 1.38.18 2z" fill="#f0d0b4"/></g><g><path d="m27 11v2h-14v-2c1.28 0 2.54-.26 3.7-.74s2.22-1.18 3.13-2.09l.17-.17.17.17c1.81 1.81 4.27 2.83 6.83 2.83z" fill="#f0d0b4"/></g><g><path d="m26.58 19c-.59 1.97-1.77 3.41-3.33 4.23-.96.5-2.06.77-3.25.77s-2.29-.27-3.25-.77l-1.75-1.35c-.7-.77-1.24-1.74-1.58-2.88-.1-.32-.18-.65-.24-1h4.99c.53 0 1.04-.21 1.42-.59l.41-.41.41.41c.38.38.89.59 1.42.59h4.99c-.06.35-.14.68-.24 1z" fill="#f0d0b4"/></g><g><path d="m23.25 23.23.75 3.77-4 5-4-5 .75-3.77c.96.5 2.06.77 3.25.77s2.29-.27 3.25-.77z" fill="#f0d0b4"/></g><g><path d="m16 27 4 5-6 2-.86-6.64z" fill="#ccd1d9"/></g><g><path d="m26.86 27.36-.86 6.64-6-2 4-5z" fill="#ccd1d9"/></g><g><path d="m56 56v6h-30-1c0-1.66.67-3.16 1.76-4.24 1.08-1.09 2.58-1.76 4.24-1.76h1 16z" fill="#b27946"/></g><g><path d="m48 54v2h-16v-2c0-1.1.9-2 2-2h4 8c1.1 0 2 .9 2 2z" fill="#fcd770"/></g><g><path d="m53.34 21.12c1.03 1.3.82 3.19-.47 4.22l-5.36 4.29c-.3-.7-.73-1.34-1.27-1.87-.99-1-2.32-1.64-3.82-1.74l6.7-5.36c.54-.43 1.2-.66 1.88-.66.91 0 1.77.41 2.34 1.12z" fill="#aab2bd"/></g><g><path d="m38 42h8v4h-8z" fill="#ccd1d9"/></g><g><path d="m62 47v15h-4-2v-6-9c0-4.42-3.58-8-8-8v-6c7.73 0 14 6.27 14 14z" fill="#dfb28b"/></g><g><path d="m48 39v3h-2-8-2v-10c0-.38.03-.75.1-1.1.52-2.79 2.97-4.9 5.9-4.9.14 0 .28 0 .42.02 1.5.1 2.83.74 3.82 1.74.54.53.97 1.17 1.27 1.87.32.73.49 1.53.49 2.37v1z" fill="#fcd770"/></g></g><path d="m49 32.051v-.051c0-.708-.108-1.391-.304-2.035l4.803-3.842c1.721-1.377 2.001-3.9.622-5.624-.765-.953-1.902-1.5-3.122-1.5-.903 0-1.791.312-2.499.877l-6.41 5.128c-.031 0-.06-.004-.09-.004-2.8 0-5.215 1.657-6.334 4.039-.583-.499-1.22-.934-1.917-1.282-.966-.482-1.998-.795-3.069-.929l-5.841-.73-.478-2.391c1.285-.867 2.284-2.137 2.907-3.706h.732c2.206 0 4-1.794 4-4 0-.933-.334-1.781-.871-2.462.306-.952.871-2.93.871-4.539 0-2.027-1.517-3.708-3.474-3.966l-.508-.676c-1.576-2.103-4.086-3.358-6.715-3.358-.98 0-1.945.17-2.869.505l-6.578 2.392c-2.306.839-3.856 3.051-3.856 5.505 0 .477.059.955.179 1.438l.717 2.67c-.552.685-.896 1.544-.896 2.49 0 2.206 1.794 4 4 4h.732c.623 1.57 1.622 2.839 2.907 3.706l-.478 2.391-5.841.73c-1.071.134-2.104.447-3.069.929-3.239 1.62-5.251 4.875-5.251 8.496v10.748c0 2.206 1.794 4 4 4h2v12h17 2 29 3 5v-16c0-7.933-6.195-14.431-14-14.949zm6 22.949h-6v-1c0-1.654-1.346-3-3-3h-7v-4h8v-4h2v-2.92c3.386.488 6 3.401 6 6.92zm-22-1c0-.551.448-1 1-1h12c.552 0 1 .449 1 1v1h-14zm6-11h6v2h-6zm10.75-21.562c.831-.667 2.146-.518 2.81.311.689.862.55 2.124-.311 2.813l-4.434 3.547c-.771-1.149-1.875-2.055-3.171-2.586zm-12.75 10.562c0-2.757 2.243-5 5-5s5 2.243 5 5v9h-10zm-11.257-3.774-.578 4.442-3.488-1.163 2.755-3.443zm.257-16.226h-12v-.046c2.228-.206 4.312-1.099 6-2.575 1.689 1.477 3.772 2.369 6 2.575zm-12 4v-2h12v2c0 .345-.021.676-.051 1h-4.12c-.263 0-.521-.107-.707-.293l-1.122-1.121-1.121 1.121c-.187.186-.444.293-.707.293h-4.12c-.031-.324-.052-.655-.052-1zm14 2h-.17c.11-.637.17-1.303.17-2v-2c1.103 0 2 .897 2 2s-.897 2-2 2zm-15.461-12.223 6.578-2.392c.703-.256 1.439-.385 2.186-.385 2.002 0 3.915.956 5.116 2.558l1.081 1.442h.5c1.103 0 2 .897 2 2 0 1.046-.313 2.353-.578 3.273-.443-.17-.919-.273-1.422-.273v-2h-1c-2.313 0-4.486-.9-6.122-2.537l-.878-.875-.879.876c-1.635 1.636-3.808 2.536-6.121 2.536h-1v2c-.483 0-.941.099-1.37.257l-.515-1.918c-.076-.307-.115-.623-.115-.937 0-1.616 1.021-3.073 2.539-3.625zm-.539 12.223c-1.103 0-2-.897-2-2s.897-2 2-2v2c0 .697.06 1.363.17 2zm2.467 1h3.705c.67 0 1.307-.218 1.828-.621.521.403 1.158.621 1.828.621h3.705c-.856 2.498-2.841 4-5.533 4s-4.677-1.502-5.533-4zm5.533 6c.89 0 1.728-.133 2.504-.383l.424 2.121-2.928 3.661-2.928-3.66.424-2.121c.776.249 1.614.382 2.504.382zm-4.432 3.062 2.755 3.443-3.488 1.163-.578-4.442zm-12.568 18.938v-10.748c0-2.858 1.589-5.429 4.146-6.707.762-.381 1.577-.628 2.423-.734l2.705-.338.892 6.859 5.834-1.945v3.613h-6v2h2v4h-6v-7h-2v9h12v4h-14c-1.103 0-2-.897-2-2zm16 8c-1.103 0-2-.897-2-2v-2h4v2c0 1.103-.897 2-2 2zm2-6v-4h2c1.103 0 2 .897 2 2s-.897 2-2 2zm-4-6v-4h4v4zm-8 8h6v2c0 2.206 1.794 4 4 4v4h-10zm15.08 10h-3.08v-4.556c1.19-.694 2-1.97 2-3.444v-2c2.206 0 4-1.794 4-4s-1.794-4-4-4v-4h2v-2h-4v-3.613l5.835 1.945.892-6.859 2.705.338c.846.106 1.661.353 2.423.734.838.418 1.569.986 2.192 1.673-.029.258-.047.518-.047.782v11h2v4 4h-3c-.352 0-.686.072-1 .184v-15.184h-2v18 1c-3.519 0-6.432 2.613-6.92 6zm2.021 0c.465-2.279 2.484-4 4.899-4h24v4zm34.899 0h-3-1v-14c0-4.624-3.507-8.442-8-8.941v-4.008c6.701.514 12 6.118 12 12.949z"/></g></svg>