<svg xmlns="http://www.w3.org/2000/svg" viewBox="0 0 301.55 190.3"><defs><style>.cls-1{fill:#003b90;}</style></defs><title>資產 1</title><g id="圖層_2" data-name="圖層 2"><g id="圖層_1-2" data-name="圖層 1"><path class="cls-1" d="M0,73.76a26.05,26.05,0,0,0,2.08,4.58l2,3.25.17,2a17.61,17.61,0,0,0,2.19,3.25s1.69,3.69,7.25,2.88c0,0,3.81-1.19,3.62-3.94A3.52,3.52,0,0,0,18,83a9.2,9.2,0,0,0,1.19-2.56s1.37-1.32-2.38-3.38L15.51,75.8s-2.44-2.19-8.44-4.19c0,0-4.31-1.81-6.12-.06C1,71.55-.11,71.84,0,73.76Z"/><path class="cls-1" d="M27.07,66l-.18,1.25s-1,1.81-.38,5.62c0,0,.56,4.07,1.75,6a8.31,8.31,0,0,1,.31,2.69S29,84.3,33.2,84a17.37,17.37,0,0,0,7.37-2.75,63.47,63.47,0,0,0,11.07-4.38l4.43-1.93s6.88-2.69,9.69-3.69a72.33,72.33,0,0,1,15.69-4.38s8.25-1.18,21.37.5a68.23,68.23,0,0,0,12.5-.18,3.07,3.07,0,0,0,2.57-2.44,1.15,1.15,0,0,1,.56-1.13s.75-3.25-3.94-5c0,0-2.75-1.37-10.31-2.06a21.15,21.15,0,0,0-10.63.13s-5.89.91-7.75.37c0,0-2.87.19-2.62-1.87l-.06-6.38s-.38-.69,7.18-3.12a22.08,22.08,0,0,0,6.57-6.88s1.79-2.71-.21-4.37l-1.54-2.79L89.7,32s-7.19.31-7.5-2.94c0,0-.5.38.06-4.94l.56-5.31s1-7.19.25-9.06c0,0-1.06-6.63-11.62-8.81,0,0-7.19-2-10.44-.13,0,0-3.58.71-1.94,4.38L60,14.49a3.73,3.73,0,0,0,1,2.06s2.31,7.38,2.69,12.19c0,0,.31,3.25-2.63,4a30.52,30.52,0,0,1-10.94,2.31l-8.25.25S35.07,35,34.2,38.18a8.65,8.65,0,0,0,.06,3.56l.56,6.06s.07,1,1.63,1.19l2.94,2.06s.62.56,2.5-.19c0,0,9.43.5,14.31-.68,0,0,5.37-.75,8.62-1.07,0,0,1.88-.31,1.5,4.38,0,0-1.56,6-5.62,7.87,0,0-5.25,2.88-17.06,5.38a16.48,16.48,0,0,1-5.69.5l-5.69-.44S28.82,65.05,27.07,66Z"/><path class="cls-1" d="M159,174.74a2.83,2.83,0,0,0-3.25-1.63l-2.44-1.37-5.25-.13-1.87-.43c-3.88-1.19-13.25-.57-13.25-.57-7.19-.18-17.13-.25-17.13-.25a48,48,0,0,1-10.68-1.12c-9.19-2.31-11.94-1.88-14.75-2.31s-2.25.25-6.63-1.19a60.3,60.3,0,0,0-13.12-2.19,17.22,17.22,0,0,1-4.07-.75c-3.68-1.69-13.81-4.75-13.81-4.75l-5.31-1.69c-5.31-1.68-6.31-3.06-6.31-3.06a2.49,2.49,0,0,1-1.25-3.25c.62-1.62,3.31-2.62,3.31-2.62l4.12-2.82c2-.31,4.69-3.68,4.69-3.68l3.88-3.07c2.87-1.12,2.87,2.19,2.87,2.19l-.06,9.06a9.27,9.27,0,0,1,.73,2.9c.31.81,4,.54,4,.54l.68-.5a4.25,4.25,0,0,0,3.13.19,7.08,7.08,0,0,0,3.56-4.06c2.06-1.25,2.63-5.38,2.63-5.38l2.12-5.69a2.5,2.5,0,0,1,2.94-2.5c6.62.82,12.87,5.07,12.87,5.07a8.78,8.78,0,0,1,2.44,1.91l2.56-.16c3.86,2.58,5.94.93,5.94.93a15.87,15.87,0,0,0,4.69-.56c5-.87,7.25-2.81,7.25-2.81,6.56-2.19,6.31-3.13,6.31-3.13,2.13-2.06,0-2.81,0-2.81L117,130.8c-3-.12-6.44-.44-6.44-.44-1.62-.81-8.37-1.81-8.37-1.81l-1.94-.31c-1.94-.31-8.69-1.63-8.69-1.63-2.06-.43-.25-1.81-.25-1.81l7.32-2.62c8.87-3.07,11-4.75,11-4.75,1.68-.88,1.25-4.07,1.25-4.07a13,13,0,0,1-1.94-5.62c-.19-6.19-1.81-5.81-1.81-5.81l-2.75.06-1.13-.06a28.74,28.74,0,0,1-4.19-1.07C96.45,99.3,96,94.93,96,94.93a5.16,5.16,0,0,1,1-5.69c2.19-2.31,6.88-9,6.88-9,2.5-3.06-1.94-5.5-1.94-5.5l-1.81-1.06c-1.82-1.07-2.07-.5-2.07-.5l-1.56.68c-1.37-.12-8.75.57-8.75.57C69.64,77.11,65.7,79.24,65.7,79.24c-7.88,2.69-11.06,7-11.06,7a17,17,0,0,0-3.82,3.25c-2,2.94-1,9.75-1,9.75a32.72,32.72,0,0,1,.32,5.94,6.89,6.89,0,0,1-2.32,2c-.31,3.31,2.13,6.87,2.13,6.87l1.44,4.13c-.25,1.18,1,3,1,3a4.68,4.68,0,0,1-.88,3.81,31.13,31.13,0,0,0-4.19,3.87A22.1,22.1,0,0,0,40,138.05a11.64,11.64,0,0,0-4.13,5l-.12,1-1.13,1.13c-1.87,3.93-6.93,2.75-6.93,2.75A2.8,2.8,0,0,1,26,145.36l.19-7.06c.5-8.12-1.13-10.5-1.13-10.5a54.6,54.6,0,0,1-.75-7.87c.69-2.19.19-7.07.19-7.07-.81-.93-1.37-5.87-1.37-5.87-4.82-6.56-10.5-6.06-10.5-6.06-.25.43.31,5.5.31,5.5l.69,2.62c.18,1.31.25,4.5.25,4.5.62,2.75-.13,8.25-.13,8.25a20.47,20.47,0,0,0-.25,5.56l.19,5.5c-.38,3.32-1.38,11.57-1.38,11.57a7.37,7.37,0,0,0-1.12,2.62,74.4,74.4,0,0,0-.31,10.44c-.5,1.69.93,4.56.93,4.56a10.81,10.81,0,0,0,5.32,2.31l11.25.13c2.31-.13,8.31,1.62,8.31,1.62a84.54,84.54,0,0,1,14.94,4.75c6.56,5.13,8.06,4.94,8.06,4.94C61.76,177.55,66,179,66,179l2.25,1.31,1.94.75c.94,1.38,7,1.88,7,1.88L81,184.55c2.06.31,10.44,5.69,10.44,5.69l4,.06c0-.5,3.37-2.25,3.37-2.25l1-.37c1.38-1.38,5.88-2.75,5.88-2.75,6.56-.75,7.62-1.57,7.62-1.57l8.19-1.12,16.81-.44a32.44,32.44,0,0,1,10.57,1.38,4.6,4.6,0,0,0,3.43,1.62c2.25.13,2.69-2.56,2.69-2.56a1.6,1.6,0,0,0,1-1.38,45.72,45.72,0,0,1,3.31-3.81C160.39,176.05,159,174.74,159,174.74ZM86.43,107.93s1.83-3.09,6.75-2.75l2.25.25s.91.33.25,2.5c0,0-.42,2.75-1.92,3.58,0,0-1.33,2.42-3.42,2.67,0,0-1.75,2.08-3.33,2.25,0,0-2.83,1.33-3.42,2.25l-3.16,2s-2.09.83-2-.5l.33-4.5a8.92,8.92,0,0,1,1.92-2.59s2.5-3,4.41-3.58ZM62.76,88.59a9.13,9.13,0,0,1,3.42-2.33l6.25-1A5.23,5.23,0,0,0,75,84.43,4.91,4.91,0,0,1,77.84,84,14.5,14.5,0,0,0,80,83.18s2.33-1.09,4.83,1.5c0,0,1.42,1.08-3.16,3.58a9.11,9.11,0,0,1-4.17,4.08l-1.17,1.25L73.68,95l-1.17,1-.83.17S68.93,98,66.76,97.93a2.13,2.13,0,0,1-2.58-1.34l-1.09-1.83L63,93.43S61.26,90.68,62.76,88.59Z"/><path class="cls-1" d="M300.09,119.18c-1.25-.5-3.58-1.34-3.58-1.34a22.29,22.29,0,0,0-5.17-3.5c-1.33-1.16-5.5-4.5-5.5-4.5a15.19,15.19,0,0,0-2.5-2.91c-2.16-3.59-4.58-4.59-4.58-4.59-3.58-1.75-3.5,2.92-3.5,2.92-.08,1.83,1.5,8.5,1.5,8.5l.5,12.67c-.25,2.75-3.67,7.08-3.67,7.08a25.1,25.1,0,0,0-3.25,3l-1.58,1.5a56.72,56.72,0,0,1-4.92,3.83c-2.08,2.17-9.16,4.92-9.16,4.92a67,67,0,0,0-7.42,2.75,36,36,0,0,0-5.17,1c-2.75.08-11,.42-11,.42a28.38,28.38,0,0,1-13.16-2.59c-3-1.66-6.59-4.08-6.59-4.08a15.16,15.16,0,0,1-4.25-3.92,17.24,17.24,0,0,1-2.83-5.75l1.5-2.41a5.39,5.39,0,0,0,1.67-1.84c1-1.66,3.58-2.5,3.58-2.5,1.42-1.08,4.5.92,4.5.92a12.24,12.24,0,0,0,3.08,1.5l1,.25c2.59,1.33,4.25.33,4.25.33a5.1,5.1,0,0,0,2.09-1.91c1.91-.84,2.66-4.92,2.66-4.92.92-3,1.75-7.58,1.75-7.58a5.53,5.53,0,0,0,1.17-3,28.11,28.11,0,0,1,1.08-5.42L235,98.34c1.75-8.66,2.33-14.75,2.33-14.75,1.34-9.41,1.75-19.25,1.75-19.25a18.8,18.8,0,0,0,.92-4.5,5.7,5.7,0,0,0,.42-2.66c-.75-5.42-4.5-6.25-4.5-6.25l-.67-.09a34.94,34.94,0,0,0-13.5-3.08C212.51,47,209.93,49,209.93,49c-2.09.67-8.5,3.75-8.5,3.75-2.67.33-5.67,2.58-5.67,2.58a83.55,83.55,0,0,0-11.58,5,10.36,10.36,0,0,1-5.84,1.42c-3-.75-7.16-5.42-7.16-5.42-.84-1.33-3.25-1-3.25-1-2.5,2.42-2.5,6.92-2.5,6.92-.09.58-.34,3.25-.34,3.25-.91,2.42-.25,8.75-.25,8.75-.91,3-.08,12.33-.08,12.33-.67.25-.33,12.17-.33,12.17v3.67c-1,2.25-.75,7.58-.75,7.58,0,2.5-.09,8-.09,8-.33,3.5,2.42,9.92,2.42,9.92a12,12,0,0,0,6.63,5.93l1.12.82c1.38.62.83,2.33.83,2.33a36.76,36.76,0,0,1-3.08,3.5,11.89,11.89,0,0,0-2.58,1.42,7.15,7.15,0,0,0-2.5,1.08,17.07,17.07,0,0,1-6.17,1.42c-1.5-.34-5.33.5-5.33.5-5.25,1.25-5.34,2.33-5.34,2.33-.91.42-.33,1.58-.33,1.58.08,1.5,3.17,4.42,3.17,4.42a12.51,12.51,0,0,1,3.33,1.83c.25.59,3.58,3.17,3.58,3.17a18.89,18.89,0,0,0,8.25,2.75c3.92.67,9-3.75,9-3.75,4.92-3.25,5.59-4.58,5.59-4.58l2.33-2.59a16.45,16.45,0,0,1,4.42-3.75c3.58-3.33,6.25.5,6.25.5,1.83,1.84,6.91,6.75,6.91,6.75a21.64,21.64,0,0,0,5.42,4.59l2.75,1.25c2.58,1.75,8.25,3.33,8.25,3.33,3.08,1.58,17.17,1.25,17.17,1.25A54.89,54.89,0,0,0,252,162.76,107.53,107.53,0,0,0,262.76,160a50.14,50.14,0,0,0,9.58-4.25,42.61,42.61,0,0,0,7.09-3.58l4.16-3.25a50,50,0,0,0,12.75-12c5.67-5.84,5.17-12.09,5.17-12.09C301.84,119.34,300.09,119.18,300.09,119.18ZM192,122.05s-.31,1-2.25,2.06c0,0-1.31,1.19-1.75,1.63,0,0-2.19,1.31-2.13,0,0,0-.62-.19-.18-2.5,0,0,.12-1.75,2.62-2,0,0,.75-1,3.44-.25l.81.06S193,122.05,192,122.05ZM196,105.26s-8.42,1.17-9.67,1.42l-1.16-.17s0-1-.67-.83a6.11,6.11,0,0,0,.5-2.59l.25-3.75s.25-1.91,3.75-2.5c0,0,3.42-.08,4.83-1.33,0,0,5.75-1.33,6.84-3.42,0,0,3.58-.75,3.83-2.25a8.71,8.71,0,0,0,2.17-2.58s1.66-1.25,1.66-2.5c0,0,1-2.25,0-2.92,0,0,.34-1.25-1.66-1.25a9.45,9.45,0,0,0-6.84.34s-6.91,1.83-8.08,2.16c0,0-4.5.75-5.67.09,0,0-1.33-.34-.75-1.17,0,0-.75-4.67-.16-6.08,0,0,.41-2.17,3.33-1.59l2.92.59s4.75,1.16,5.66,1.41c0,0-1,.25,3,.17a15.26,15.26,0,0,1,4.25,1.33,5.67,5.67,0,0,0,5.09-.41l2.66-1.59a2.58,2.58,0,0,0,1.25-1.5s.92-1.16,1.42-1.33c0,0,.5-4.42-1.67-5.42a20.76,20.76,0,0,1-4.41-2.91s-2.34-1.25-4.67-2.17a11.75,11.75,0,0,1-2.92-1.17s-1-.91.59-1.16a34.52,34.52,0,0,0,3.75-1.25,8.83,8.83,0,0,1,7.33-.25l2.33.75s2.59.58,2.84,5c0,0,.75,10.75.58,14.75,0,0,0,9.08-1.42,15.16l-.5,3.75s-1.66,2.25-1.58,3.67c0,0-.83,1.08-4.5,1.33C210.51,103.09,200.76,103.76,196,105.26Z"/></g></g></svg>