<?xml version="1.0" encoding="UTF-8"?>
<!DOCTYPE svg PUBLIC "-//W3C//DTD SVG 1.1//EN" "http://www.w3.org/Graphics/SVG/1.1/DTD/svg11.dtd">
<svg xmlns="http://www.w3.org/2000/svg" xml:space="preserve" width="117.268mm" height="12.2683mm" version="1.1" style="shape-rendering:geometricPrecision; text-rendering:geometricPrecision; image-rendering:optimizeQuality; fill-rule:evenodd; clip-rule:evenodd"
viewBox="0 0 8746 915"
 xmlns:xlink="http://www.w3.org/1999/xlink">
 <defs>
  <style type="text/css">
   <![CDATA[
    .fil1 {fill:#D8262C}
    .fil2 {fill:white}
    .fil3 {fill:#666666;fill-rule:nonzero}
    .fil0 {fill:#D8262C;fill-rule:nonzero}
   ]]>
  </style>
 </defs>
 <g>
  <path class="fil0" d="M4983 438c3,0 9,1 16,4 9,6 14,12 14,17 0,4 -1,8 -2,12 -2,5 -4,8 -7,8 -31,5 -63,10 -96,13 -2,9 -4,18 -7,27 9,-3 18,-5 28,-9 3,0 5,-1 7,-1 5,0 15,3 31,10 19,10 28,18 28,26 0,1 -1,3 -4,6 -5,7 -8,13 -8,21 -3,23 -6,60 -9,110 19,-3 36,-5 50,-8 4,0 6,0 8,0 10,0 21,4 34,11 11,9 17,19 17,29 0,10 -4,16 -13,16 -8,0 -22,-2 -42,-4 -12,-2 -22,-4 -31,-4 -59,0 -106,2 -144,6 -31,3 -61,7 -91,12 -7,2 -13,3 -20,3 -8,0 -17,-4 -26,-14 -8,-9 -13,-16 -13,-18 0,-3 2,-4 4,-4 18,0 52,-3 102,-7 3,-80 3,-127 1,-141 -3,-7 -6,-13 -9,-18 -3,-4 -5,-8 -5,-11 0,-6 3,-9 7,-9 11,0 21,3 32,8 2,1 4,2 6,3 4,-1 8,-1 13,-2 2,-1 5,-1 8,-2 1,-12 2,-22 3,-31 -16,1 -29,2 -39,2 -21,0 -34,-6 -40,-18 -5,-7 -7,-12 -7,-15 0,-3 1,-4 3,-4 33,-1 62,-3 86,-5 0,-1 0,-1 0,-2 0,-10 -2,-21 -5,-34 -2,-3 -2,-5 -2,-7 0,-3 3,-4 10,-4 12,0 24,2 33,7 17,6 25,12 25,18l-4 3c-2,2 -4,6 -4,11 0,1 -1,1 -1,2 19,-4 36,-7 50,-11 5,-2 9,-2 13,-2zm-136 258c3,0 6,0 8,-1 26,-2 50,-5 71,-8 2,-42 4,-85 5,-127 0,-11 -3,-17 -7,-17 -5,0 -19,2 -40,6 -11,2 -20,4 -28,5 -1,3 -2,9 -3,16 12,-2 23,-5 34,-8 3,-2 5,-2 7,-2 21,0 31,8 31,23 0,2 -1,3 -4,4 -15,3 -30,5 -44,7 -11,2 -18,3 -22,3 -1,0 -3,-1 -5,-1 0,5 0,11 -1,16 14,-2 26,-4 38,-7 3,-1 5,-1 7,-1 21,0 31,7 31,22 0,2 -1,3 -4,3 -15,2 -29,4 -42,6 -11,1 -19,2 -22,2 -3,0 -6,0 -9,-2 0,7 0,14 0,21 14,-2 28,-4 42,-6 3,-1 6,-1 7,-1 19,0 28,7 28,21 0,1 -1,2 -4,3 -17,2 -33,3 -48,4 -12,1 -19,2 -23,2 -1,0 -2,0 -3,0 0,5 0,11 0,17zm-23 36c4,0 14,1 30,5 15,4 22,9 22,15 0,2 -1,3 -3,4 -8,3 -17,9 -27,15 -19,13 -37,22 -53,29 -10,4 -22,8 -36,11 -4,2 -7,2 -9,2 -3,0 -4,0 -4,-2 13,-8 25,-18 36,-28 16,-13 27,-24 33,-34 3,-3 4,-8 4,-14 0,-2 2,-3 7,-3zm98 -2c3,0 9,0 16,2 13,4 26,10 39,16 17,9 29,18 34,25 5,7 7,15 7,23 0,5 -2,11 -5,17 -4,5 -8,7 -14,7 -8,0 -13,-3 -16,-9 -5,-4 -13,-12 -23,-25 -15,-22 -25,-36 -30,-41 -7,-6 -10,-11 -10,-13 0,-2 1,-2 2,-2z"/>
  <path id="1" class="fil0" d="M5351 438c4,0 9,0 15,2 13,3 23,7 31,12 5,4 8,11 8,19 0,4 -3,8 -8,13 -5,4 -11,6 -17,6 -2,0 -5,-2 -7,-5 -6,-6 -14,-19 -24,-40 -1,-1 -2,-3 -2,-4 0,-2 2,-3 4,-3zm111 -21c7,0 17,2 31,7 14,8 22,14 22,19 0,2 -2,3 -7,5 -5,1 -11,4 -17,8 -26,16 -46,26 -60,31 -1,0 -2,-1 -2,-2 5,-6 9,-11 11,-16 5,-7 9,-15 12,-23 2,-5 3,-8 3,-10 0,-1 0,-3 0,-4 -1,-3 -1,-6 -1,-7 0,-5 3,-8 8,-8zm44 61c7,0 16,2 25,6 10,8 15,15 15,22 0,2 -1,5 -3,8 -3,2 -6,4 -9,4 -37,0 -68,1 -96,3 5,3 7,5 7,7 0,1 -1,3 -4,5 -4,4 -8,6 -10,8 -7,7 -15,13 -25,20 23,-4 41,-8 53,-11 3,0 6,-1 10,-1 5,0 13,2 26,6 17,8 26,14 26,21 0,2 -2,6 -4,14 -1,4 -2,11 -2,22 0,11 0,19 -1,26 -1,24 -1,44 -1,60 0,5 -3,12 -9,22 -6,6 -12,10 -17,10 -3,0 -8,-5 -14,-14 -2,-1 -3,-3 -4,-4 -18,0 -37,1 -55,3 -20,1 -32,2 -37,2l-1 0c-1,2 -2,4 -4,7 -4,4 -8,6 -11,6 -6,0 -11,-5 -14,-15 -3,-7 -5,-13 -5,-17l0 -2c2,-12 3,-21 4,-27 1,-14 1,-32 1,-53 -1,-23 -3,-38 -6,-45 -1,-2 -1,-3 -1,-4 0,-3 2,-5 5,-5 7,0 14,2 22,5 1,0 2,0 3,-1 5,0 11,-1 16,-2 5,-8 8,-16 11,-23 2,-5 3,-8 3,-11 0,-1 -1,-2 -2,-4 -17,3 -37,7 -60,14 -1,0 -3,1 -5,1 -3,0 -9,-4 -16,-12 -5,-7 -8,-12 -8,-15 0,-1 1,-1 3,-1 20,-4 37,-6 50,-8 12,-2 27,-5 45,-7 27,-5 50,-10 69,-16 11,-3 21,-4 30,-4zm-129 212c9,0 20,-1 33,-3 17,-1 32,-3 42,-5 3,-1 6,-2 9,-2 2,0 5,1 7,2 1,-16 1,-43 1,-82 0,-7 -2,-14 -6,-20 -2,-3 -5,-4 -9,-4 -7,0 -14,0 -22,1 -14,2 -25,4 -34,6 -6,1 -14,1 -22,1 0,5 -1,11 -1,18 15,-2 29,-5 42,-8 3,-1 5,-1 7,-1 19,0 28,7 28,21 0,2 -1,3 -4,3 -15,3 -29,5 -43,6 -11,1 -18,2 -21,2 -3,0 -6,-1 -8,-1 0,7 0,13 0,20 15,-2 28,-4 41,-8 3,0 6,-1 7,-1 19,0 28,7 28,21 0,2 -1,2 -4,3 -15,2 -29,4 -42,6 -10,1 -17,1 -20,1 -4,0 -7,0 -10,-1 1,9 1,18 1,25zm-159 -221c5,0 11,1 17,2 17,4 29,8 37,12 7,5 11,11 11,19 0,6 -3,11 -9,16 -7,5 -13,7 -19,7 -4,0 -7,-2 -10,-6 -7,-6 -16,-20 -28,-42 -2,-2 -3,-3 -3,-4 1,-3 2,-4 4,-4zm37 87c5,0 14,3 26,7 13,5 19,12 19,20 0,3 -2,6 -7,9 -11,5 -18,10 -20,15 -8,16 -11,26 -11,32 0,1 0,3 2,6 17,17 25,32 25,44 0,7 -3,14 -9,23 -1,1 -2,2 -4,3 18,3 48,10 90,21 22,7 48,12 77,16 15,2 63,4 144,5 1,0 1,2 1,6 0,0 -1,2 -4,3 -17,13 -37,23 -59,30 -17,7 -30,11 -38,11 -5,0 -8,-1 -11,-2 -19,-6 -36,-11 -52,-16 -60,-23 -106,-38 -140,-46 -6,-1 -13,-1 -19,-1 -11,0 -27,2 -50,8 -5,1 -8,2 -9,2 -4,0 -9,-3 -14,-10 -7,-8 -11,-15 -11,-23 0,-1 1,-2 2,-2 30,-2 53,-3 68,-3 0,-2 0,-4 0,-6 0,-8 -2,-17 -5,-27 -2,-12 -6,-22 -10,-29 -2,-4 -2,-9 -2,-13 0,-7 4,-21 12,-42l0 0c0,-2 -2,-2 -5,-2 -8,5 -15,7 -20,7 -7,0 -13,-2 -18,-7 -4,-3 -6,-7 -6,-11 0,-1 2,-1 5,-1 8,0 17,-2 25,-6 8,-3 15,-9 22,-17 2,-2 4,-4 6,-4z"/>
  <path id="2" class="fil0" d="M5790 474c3,0 7,2 13,4 8,5 11,10 11,14 0,3 0,6 -1,9 -1,4 -3,6 -6,7 -8,2 -17,4 -26,6 5,3 7,6 7,10 0,1 0,2 -2,4 -2,5 -4,16 -5,33l0 3c1,0 1,0 2,0 21,0 31,7 31,22 0,4 -1,6 -4,7 -11,3 -21,5 -30,7l-2 67c11,-3 22,-6 33,-9 10,-4 17,-6 19,-6 5,0 7,3 7,7 0,2 -2,3 -5,5 -13,9 -33,21 -60,36 -16,8 -34,18 -54,31 -3,2 -5,4 -7,4 -3,0 -10,-6 -19,-16 -7,-11 -10,-19 -10,-23 0,-3 1,-5 3,-5 7,-1 13,-2 19,-4 10,-2 22,-5 35,-8l0 -71c-7,2 -13,3 -15,3 -7,0 -13,-3 -18,-7 -5,-4 -7,-9 -7,-13 0,-1 1,-3 4,-3 12,-3 25,-6 36,-10 0,-17 -1,-32 -4,-47 0,-3 -1,-6 -2,-10 -14,0 -24,-5 -28,-12 -4,-6 -6,-10 -6,-12 0,-2 1,-4 4,-4 23,-1 41,-4 54,-7 11,-3 20,-6 27,-10 2,-1 4,-2 6,-2zm30 -6c7,0 16,1 26,3 3,1 5,2 6,3 42,-4 89,-12 141,-24 5,0 16,4 32,12 19,11 29,20 29,25 0,2 -1,5 -4,7 -7,11 -13,24 -18,40 -3,19 -9,40 -17,65 -3,7 -8,13 -15,19 -6,2 -10,3 -14,3 -4,0 -6,-2 -8,-6 0,-1 -1,-1 -1,-2 -14,0 -27,1 -39,3l-1 39c7,-3 14,-5 20,-7 3,-2 5,-3 8,-3 3,0 8,2 15,5 8,6 13,12 13,16 0,5 -1,8 -3,11 -1,4 -3,6 -6,7 -16,4 -32,7 -48,10l-1 36c35,-5 63,-9 85,-12 2,-1 4,-1 6,-1 8,0 18,3 29,9 10,8 15,17 15,25 0,9 -4,13 -11,13 -7,0 -19,-1 -36,-2 -10,-2 -19,-3 -27,-3 -42,0 -77,1 -103,4 -23,2 -45,5 -66,10 -5,1 -10,2 -14,2 -7,0 -15,-4 -24,-12 -6,-8 -10,-13 -10,-16 0,-2 2,-4 4,-4 18,0 55,-3 111,-8 1,-1 2,-1 3,-1l0 -34c-3,0 -5,0 -7,0 -19,0 -32,-6 -38,-17 -4,-7 -6,-12 -6,-15 0,-1 1,-2 3,-2 18,0 34,-2 48,-4l0 -40c-12,2 -20,3 -23,3 -1,0 -3,-1 -4,-1 -1,1 -4,2 -7,2 -5,0 -9,-2 -13,-7 -4,-5 -6,-9 -6,-12 -4,-13 -7,-34 -10,-65 -2,-19 -5,-34 -9,-45 -3,-9 -6,-17 -11,-21 0,-6 2,-8 6,-8zm55 135c7,0 14,-1 22,-2l0 -23c0,-5 0,-11 0,-16 -1,0 -2,0 -2,0 -7,0 -13,-2 -19,-7 -4,-4 -6,-8 -6,-12 0,-2 1,-4 4,-4 7,-2 15,-3 22,-5 -1,-7 -2,-15 -3,-21 0,-7 -1,-13 -4,-20 -10,1 -18,2 -25,2l11 108zm59 -116c9,4 13,8 13,12 0,1 0,4 -2,7 -1,4 -2,9 -3,15 20,1 30,9 30,24 0,2 -2,3 -5,4 -10,2 -19,4 -28,6l0 1 -1 38c9,-1 16,-3 23,-4 3,-2 6,-2 9,-2 2,0 3,0 5,1 6,-20 10,-39 13,-59 2,-15 3,-28 3,-40 0,-8 -3,-12 -9,-12 -18,3 -34,6 -48,9z"/>
  <path id="3" class="fil0" d="M6200 567c1,0 3,2 4,6 5,10 8,18 8,24 0,15 -3,32 -9,49 -2,12 -6,22 -11,28 -3,6 -7,8 -10,8 -9,0 -17,-3 -22,-9 -3,-6 -4,-11 -4,-17 0,-5 1,-12 3,-18 20,-32 31,-52 33,-62 1,-6 4,-9 8,-9zm28 -126c13,0 27,4 41,11 13,5 20,12 20,19 0,3 -1,6 -3,9 -2,17 -4,33 -6,48 7,2 13,4 19,7 10,5 17,9 20,13 3,4 5,8 5,12 0,5 -2,10 -6,16 -3,5 -8,7 -14,7 -6,0 -11,-3 -14,-9 -2,-2 -5,-8 -10,-15 0,-2 -1,-4 -2,-5 -1,19 -2,37 -2,53l0 144c0,7 -3,15 -10,23 -4,10 -9,15 -16,15 -7,0 -14,-6 -19,-19 -5,-8 -7,-17 -7,-28 5,-18 8,-36 11,-56 4,-17 6,-43 6,-79 0,-77 -1,-120 -4,-131 -3,-10 -8,-20 -15,-30 0,-3 2,-5 6,-5zm132 63c8,0 17,3 29,10 10,6 15,11 15,16 0,1 -1,2 -2,3 -2,2 -3,3 -3,5 -6,9 -11,18 -15,25 10,0 19,-2 27,-3l0 -15c0,-25 -1,-48 -3,-70 0,-10 -3,-19 -8,-28 -1,-2 -1,-3 -1,-4 0,-5 4,-7 12,-7 11,0 22,2 35,7 13,6 19,11 19,16 0,2 0,4 -2,7 -3,9 -5,27 -6,55l-1 30c12,-3 23,-7 32,-11 3,-2 6,-3 8,-3 3,0 8,1 14,4 7,5 11,10 11,14 0,3 -1,6 -2,9 -1,4 -3,6 -5,6 -19,6 -38,10 -58,14l-1 43c5,-2 9,-2 12,-2 25,0 38,9 38,27 0,3 -2,5 -6,6 -16,2 -31,5 -45,7l-1 46c26,-4 48,-8 65,-11 2,0 4,0 5,0 9,0 19,3 31,10 11,9 16,18 16,26 0,11 -4,16 -12,16 -8,0 -21,-1 -39,-3 -12,-3 -21,-4 -29,-4 -35,0 -63,1 -85,4 -18,2 -36,5 -54,10 -4,1 -8,2 -11,2 -8,0 -16,-5 -25,-15 -7,-9 -11,-15 -11,-18 0,-2 2,-2 4,-2 16,0 48,-3 98,-9 2,0 4,0 6,-1l0 -47c-13,2 -21,3 -26,3 -8,0 -15,-3 -21,-8 -6,-5 -8,-10 -8,-15 0,-3 2,-5 5,-5 17,-3 34,-5 50,-8l0 -45c-8,1 -15,2 -20,2 -11,0 -20,-2 -26,-5 -7,9 -15,17 -22,24 -5,4 -11,8 -19,13 -2,1 -4,1 -5,1 -1,0 -2,0 -2,-1 4,-7 9,-15 13,-25 7,-15 13,-29 17,-41 4,-14 7,-25 9,-32 1,-4 2,-8 2,-13l-2 -8c0,-1 1,-2 3,-2z"/>
  <path id="4" class="fil0" d="M7174 438c4,0 9,1 17,4 9,6 13,12 13,17 0,4 0,8 -2,12 -1,5 -4,8 -7,8 -30,5 -62,10 -95,13 -3,9 -5,18 -8,27 9,-3 18,-5 28,-9 3,0 6,-1 7,-1 5,0 15,3 31,10 19,10 29,18 29,26 0,1 -2,3 -4,6 -5,7 -8,13 -9,21 -2,23 -5,60 -8,110 18,-3 35,-5 50,-8 3,0 6,0 7,0 10,0 21,4 34,11 12,9 17,19 17,29 0,10 -4,16 -12,16 -8,0 -22,-2 -42,-4 -12,-2 -23,-4 -32,-4 -58,0 -106,2 -143,6 -31,3 -62,7 -92,12 -6,2 -13,3 -20,3 -8,0 -16,-4 -26,-14 -8,-9 -12,-16 -12,-18 0,-3 1,-4 3,-4 19,0 53,-3 102,-7 3,-80 4,-127 1,-141 -2,-7 -5,-13 -9,-18 -3,-4 -4,-8 -4,-11 0,-6 2,-9 7,-9 10,0 21,3 31,8 2,1 4,2 6,3 4,-1 9,-1 13,-2 3,-1 5,-1 8,-2 2,-12 2,-22 3,-31 -16,1 -29,2 -39,2 -20,0 -33,-6 -39,-18 -5,-7 -8,-12 -8,-15 0,-3 1,-4 4,-4 32,-1 61,-3 85,-5 0,-1 0,-1 0,-2 0,-10 -1,-21 -5,-34 -1,-3 -2,-5 -2,-7 0,-3 4,-4 11,-4 12,0 23,2 33,7 16,6 24,12 24,18l-3 3c-3,2 -4,6 -5,11 0,1 0,1 0,2 18,-4 35,-7 50,-11 4,-2 8,-2 12,-2zm-135 258c2,0 5,0 8,-1 26,-2 49,-5 71,-8 2,-42 3,-85 4,-127 0,-11 -2,-17 -7,-17 -5,0 -18,2 -40,6 -10,2 -19,4 -27,5 -2,3 -3,9 -4,16 12,-2 24,-5 34,-8 3,-2 6,-2 7,-2 21,0 32,8 32,23 0,2 -2,3 -4,4 -16,3 -30,5 -44,7 -11,2 -19,3 -22,3 -2,0 -4,-1 -5,-1 -1,5 -1,11 -1,16 13,-2 26,-4 37,-7 3,-1 6,-1 7,-1 21,0 32,7 32,22 0,2 -2,3 -4,3 -15,2 -30,4 -43,6 -11,1 -18,2 -21,2 -4,0 -6,0 -9,-2 0,7 -1,14 -1,21 15,-2 29,-4 42,-6 3,-1 6,-1 8,-1 19,0 28,7 28,21 0,1 -2,2 -4,3 -17,2 -33,3 -48,4 -12,1 -20,2 -23,2 -1,0 -2,0 -3,0 0,5 0,11 0,17zm-24 36c5,0 14,1 30,5 15,4 23,9 23,15 0,2 -1,3 -4,4 -8,3 -17,9 -26,15 -20,13 -38,22 -54,29 -10,4 -21,8 -35,11 -4,2 -7,2 -10,2 -3,0 -4,0 -4,-2 13,-8 25,-18 37,-28 15,-13 26,-24 33,-34 2,-3 4,-8 4,-14 0,-2 2,-3 6,-3zm98 -2c4,0 9,0 16,2 13,4 26,10 40,16 17,9 28,18 34,25 4,7 6,15 6,23 0,5 -1,11 -5,17 -3,5 -8,7 -14,7 -7,0 -13,-3 -16,-9 -5,-4 -13,-12 -23,-25 -14,-22 -24,-36 -30,-41 -6,-6 -9,-11 -9,-13 0,-2 0,-2 1,-2z"/>
  <path id="5" class="fil0" d="M7584 404c5,0 16,4 35,11 14,7 21,13 21,18 0,2 -2,3 -7,5 -15,4 -25,7 -30,7 -7,2 -17,4 -28,8 -37,10 -60,15 -70,15 -7,0 -10,-1 -10,-2 21,-8 38,-15 51,-22 11,-6 19,-12 25,-19 4,-3 7,-9 10,-15 0,-4 1,-6 3,-6zm-103 74c3,0 7,0 12,1 11,2 19,5 25,9 4,3 7,7 7,12 0,5 -3,10 -8,14 -5,4 -11,6 -17,6 -2,0 -4,-2 -5,-5 -4,-4 -10,-15 -16,-30 -1,-2 -2,-3 -2,-4 1,-2 2,-3 4,-3zm63 -5c5,0 12,1 20,4 7,2 12,5 14,7 3,3 4,6 4,9 0,11 -5,16 -17,16 -4,0 -9,-5 -15,-14 -6,-11 -10,-18 -10,-21 0,-1 2,-1 4,-1zm92 -28c5,0 14,4 26,14 11,8 16,16 16,22 0,3 -2,5 -8,7 -9,2 -19,5 -31,9 -22,8 -35,12 -39,12 -1,0 -2,0 -2,-1 0,-2 1,-3 2,-4 7,-7 13,-16 19,-25 4,-6 8,-16 13,-30 1,-3 3,-4 4,-4zm-197 69c5,0 9,5 14,13 1,1 2,3 2,5 57,-3 133,-11 230,-25 5,-1 8,-1 11,-1 6,0 17,5 33,16 19,16 28,27 28,31 0,5 -6,8 -17,8 -17,0 -39,4 -67,11 -3,0 -5,-1 -5,-3 0,-1 4,-6 12,-14 6,-7 9,-12 9,-14 0,-1 -1,-2 -2,-3 -4,-2 -7,-3 -10,-3 -31,0 -63,2 -96,6 -27,3 -62,8 -104,15 -8,1 -13,2 -15,2 -2,0 -4,0 -5,-1 -2,6 -4,12 -8,19 -6,15 -11,25 -17,30 -4,3 -7,5 -10,5 -7,0 -13,-3 -19,-9 -4,-5 -6,-11 -6,-18 0,-4 2,-8 4,-11 9,-9 20,-26 31,-53 2,-4 4,-6 7,-6zm52 48c2,0 3,1 4,4 3,8 5,14 5,18 0,10 -2,19 -7,30 -3,7 -7,12 -12,16 -3,4 -6,5 -9,5 -6,0 -12,-2 -16,-7 -2,-5 -3,-9 -3,-14 0,-3 1,-7 3,-10 18,-19 27,-31 28,-37 2,-3 4,-5 7,-5zm21 21c2,0 3,0 6,1 7,6 15,10 24,13 12,3 26,5 42,5 7,0 16,-1 26,-3 4,-2 5,-3 5,-4l-3 -18c0,-2 1,-3 2,-3 1,0 3,1 5,3 15,11 28,19 41,24 4,2 6,5 6,11 0,4 -3,8 -9,10 -8,4 -18,7 -29,9 -13,3 -25,4 -34,4 -21,0 -38,-3 -52,-10 -11,-5 -19,-11 -25,-19 -3,-5 -7,-12 -10,-22 0,-1 2,-1 5,-1zm25 -28c6,0 14,1 24,3 9,2 16,5 18,7 3,2 5,4 5,7 0,14 -8,21 -24,21 -5,0 -10,-5 -16,-15 -7,-10 -11,-17 -11,-20 0,-2 2,-3 4,-3zm66 -16c8,0 17,1 29,4 11,3 18,5 22,8 3,2 5,5 5,9 0,13 -7,20 -21,20 -6,0 -13,-6 -23,-17 -10,-12 -15,-19 -15,-22 0,-2 1,-2 3,-2zm-85 89c8,0 18,3 30,10 10,5 15,9 15,14 0,1 0,1 0,1 4,0 7,-1 11,-1 13,-2 25,-6 38,-10 1,-1 2,-2 3,-2 5,0 15,4 29,11 17,11 26,20 26,26 0,3 -3,6 -8,9 -8,5 -13,9 -16,12 -9,12 -18,23 -28,32 9,4 17,9 26,12 26,12 68,26 127,40l0 7c0,2 -4,3 -11,4 -34,4 -64,6 -90,6 -10,0 -16,-1 -20,-2 -16,-11 -36,-26 -59,-45 -16,11 -31,19 -47,24 -24,7 -46,11 -68,11 -14,0 -21,-1 -21,-3l0 -3c22,-4 43,-12 63,-22 18,-9 33,-20 47,-32 -7,-5 -15,-12 -25,-19 -7,-5 -14,-8 -21,-11 -7,8 -14,14 -21,21 -22,15 -41,27 -58,34 -9,5 -16,7 -18,7 -2,0 -2,-1 -2,-3 24,-20 44,-38 60,-55 11,-13 20,-27 28,-41 3,-9 4,-15 4,-18l-1 -11c0,-2 2,-3 7,-3zm14 57c3,0 6,1 10,2 9,2 18,7 27,13 5,3 10,6 14,9 7,-8 14,-18 20,-28 3,-3 4,-6 4,-7 0,-3 -2,-4 -7,-4 -29,6 -45,9 -47,9 -3,0 -7,-2 -12,-4 -3,3 -6,7 -9,10z"/>
  <path id="6" class="fil0" d="M8030 422c11,0 23,4 37,12 13,6 19,14 19,23 0,2 -2,5 -7,8 -26,21 -61,57 -105,107 -1,1 -3,3 -4,5l181 -18c-12,-18 -19,-30 -24,-34 -7,-8 -11,-14 -11,-17 0,-1 1,-2 2,-2 3,0 9,1 16,3 14,6 28,13 42,21 18,12 30,23 36,33 5,9 7,18 7,28 0,6 -2,11 -5,16 -3,5 -8,7 -14,7 -7,0 -11,-3 -14,-9 -6,-4 -14,-14 -24,-28 -108,13 -183,31 -226,53 -10,0 -17,-5 -23,-15 -6,-6 -8,-13 -8,-24 0,-2 0,-5 1,-7 20,-8 41,-26 65,-53 12,-14 26,-37 44,-69 6,-12 8,-19 8,-21 -2,-3 -3,-7 -3,-10 0,-6 3,-9 10,-9zm-85 229c8,0 18,1 30,4 5,2 9,4 12,5 24,-1 47,-3 66,-8 19,-3 36,-7 54,-14 6,-2 11,-3 16,-3 8,0 21,5 37,14 21,12 31,22 31,28 0,2 -1,4 -4,6 -7,5 -12,11 -16,18 -8,11 -13,25 -17,44 0,0 0,1 0,1 0,0 1,1 1,2 8,10 12,17 12,22 -1,1 -3,2 -6,2 -34,0 -68,1 -102,4 -23,2 -39,3 -48,4 -1,13 -7,19 -16,19 -6,0 -11,-3 -16,-8 -4,-5 -6,-10 -6,-13 -5,-11 -9,-30 -12,-58 -3,-16 -6,-30 -11,-40 -3,-8 -7,-15 -12,-19 0,-7 2,-10 7,-10zm62 101c13,-1 30,-2 51,-5 18,-2 34,-4 47,-6 2,-6 4,-16 6,-29 2,-10 3,-19 3,-26 0,-11 -3,-16 -9,-16 -9,0 -28,2 -58,7 -22,4 -39,7 -50,8l10 67z"/>
  <path id="7" class="fil0" d="M8398 445c8,0 17,2 29,6 11,4 18,8 22,11 3,5 5,9 5,14 0,13 -7,19 -21,19 -6,0 -13,-7 -23,-20 -10,-15 -16,-25 -16,-29 0,-1 2,-1 4,-1zm-21 92c5,0 10,1 16,2 14,4 25,8 32,13 7,4 10,10 10,18 0,5 -3,9 -8,14 -6,4 -11,6 -17,6 -3,0 -6,-2 -9,-6 -6,-6 -15,-19 -25,-39 -2,-2 -2,-3 -2,-4 0,-3 1,-4 3,-4zm68 102c1,0 2,1 2,3 0,3 -2,8 -5,15 -17,43 -28,70 -32,82 -3,6 -5,13 -6,21 -4,12 -7,18 -11,18 -4,0 -9,-6 -16,-19 -6,-16 -9,-27 -9,-33 0,-5 2,-9 6,-11 8,-4 14,-8 18,-13 9,-8 26,-29 51,-62 1,0 1,-1 2,-1zm35 -206c6,0 14,2 21,6 8,4 12,9 12,14 0,1 -1,3 -2,4 -8,9 -18,22 -31,40l18 -2c1,-3 2,-5 4,-8 1,-3 2,-7 2,-11 0,-6 3,-8 9,-8 4,0 10,3 20,9 9,5 13,9 13,15 0,1 -1,2 -3,3 -8,7 -17,15 -28,26 -9,9 -17,18 -26,29 10,-3 19,-6 28,-9 -2,-9 -4,-15 -4,-17 0,-2 1,-3 4,-3 4,0 9,2 15,6 6,3 10,6 11,9 2,3 3,7 3,12 0,1 0,1 0,1 5,0 11,1 18,3 2,0 4,1 6,2 3,-1 6,-2 9,-2 6,-1 12,-4 18,-7 3,-3 5,-4 7,-4 3,0 8,2 17,5 10,6 15,10 15,12 0,1 -1,2 -1,3 -6,6 -10,11 -11,14 -1,2 -2,5 -3,7l0 1c5,6 8,11 8,14 -1,0 -1,0 -2,0 -11,0 -22,1 -33,3 -9,1 -15,2 -17,2 -1,5 -4,7 -8,7 -3,0 -6,-2 -9,-5 -2,-3 -3,-5 -3,-7 -2,-5 -3,-12 -4,-21 -2,-6 -3,-11 -5,-14 -1,-3 -2,-4 -3,-6 -3,6 -9,9 -18,9 -1,0 -4,-4 -6,-11 -1,0 -2,0 -2,1 -12,3 -23,7 -32,13 -9,5 -15,10 -18,14 -2,2 -4,2 -5,2 -3,0 -8,-3 -13,-11 -4,-5 -6,-10 -6,-13 0,-2 2,-4 4,-6 3,-1 5,-2 7,-4 3,-2 10,-10 20,-24 4,-5 7,-10 10,-14 -10,4 -18,10 -23,16 -7,0 -11,-2 -14,-8 -4,-3 -6,-8 -6,-14l0 -6c6,-3 11,-10 18,-21 3,-4 7,-13 11,-26 2,-5 3,-8 3,-8 -1,-3 -2,-5 -2,-7 0,-4 2,-5 7,-5zm97 150c3,0 6,-1 9,-1 4,-1 8,-2 12,-3 0,-6 1,-11 1,-14 0,-1 -1,-1 -4,-1 -1,0 -5,1 -10,2 -3,1 -6,2 -8,2l0 15zm-13 -169c5,0 12,0 20,2 9,2 14,4 16,5 3,2 4,4 4,6 0,13 -7,19 -21,19 -3,0 -8,-4 -13,-13 -6,-9 -10,-15 -10,-18 0,-1 2,-1 4,-1zm45 32c17,0 25,6 25,18 0,3 -2,4 -4,5 -17,5 -33,8 -48,10 -12,3 -20,4 -23,4 -6,0 -10,-2 -15,-5 -3,-4 -5,-7 -5,-10 0,-3 2,-4 4,-4 21,-4 40,-9 58,-16 4,-1 7,-2 8,-2zm-10 39c12,0 17,3 17,10 0,4 -1,7 -5,9 -9,2 -21,4 -35,6 -1,1 -2,1 -3,1 -2,0 -6,-1 -11,-3 -5,-1 -7,-3 -7,-6 0,-3 1,-6 2,-7 21,-5 34,-8 39,-10 0,0 1,0 3,0zm0 28c12,0 17,3 17,11 0,3 -1,6 -5,8 -9,2 -21,4 -35,6 -1,1 -2,1 -3,1 -2,0 -6,-1 -11,-3 -5,-1 -7,-3 -7,-6 0,-3 1,-5 2,-6 21,-6 34,-9 39,-11 0,0 1,0 3,0zm63 -95c6,0 13,3 20,7 8,4 11,8 11,13 0,1 -1,2 -2,3 -8,8 -18,20 -31,38l23 -2c2,-3 4,-6 5,-8 2,-3 3,-7 3,-10 0,-6 3,-9 9,-9 3,0 9,3 18,9 8,4 12,9 12,14 0,0 -1,2 -4,3 -8,6 -17,13 -28,23 0,0 0,0 1,0 4,0 10,1 17,5 7,3 12,7 14,10 2,3 3,7 3,11 0,12 -6,18 -19,18 -2,0 -5,-4 -8,-11 -2,0 -4,1 -7,2 -12,2 -22,6 -30,10 -9,4 -15,7 -19,11 -2,1 -3,1 -4,1 -3,0 -7,-3 -12,-10 -4,-5 -5,-9 -5,-12 0,-2 1,-4 4,-6 3,0 5,-1 6,-3 4,-2 11,-10 22,-22 4,-4 7,-7 10,-11 -12,4 -21,9 -27,14 -5,0 -9,-3 -12,-8 -4,-3 -5,-8 -5,-13l0 -4c5,-3 10,-9 16,-19 3,-5 7,-14 11,-25 2,-5 3,-8 3,-8l0 -7c0,-2 1,-4 5,-4zm40 103c-5,-10 -7,-16 -7,-20 -8,8 -16,16 -24,25 11,-2 21,-4 31,-5zm-259 69c3,0 6,0 9,2 9,3 15,7 19,11 4,4 6,10 6,18 0,3 -2,6 -5,8 -4,3 -8,4 -11,4 -2,0 -3,-1 -5,-4 -3,-5 -7,-17 -13,-34 -1,-1 -1,-3 -1,-4 0,-1 0,-1 1,-1zm39 -9c2,0 4,1 7,2 6,2 11,5 15,8 3,3 4,8 4,14 0,3 -2,6 -5,9 -3,2 -7,4 -11,4 -1,0 -2,-2 -3,-4 -2,-5 -5,-14 -8,-28 -1,-1 -1,-2 -1,-3 0,-1 1,-2 2,-2zm31 -11c4,0 9,2 16,5 5,2 9,5 11,8 2,2 3,5 3,8 0,8 -5,13 -14,13 -3,0 -6,-5 -10,-14 -5,-9 -7,-16 -7,-18 0,-1 0,-1 1,-2zm130 -6c2,0 4,0 7,1 6,3 11,6 15,9 2,3 4,8 4,14 0,3 -2,6 -5,8 -4,3 -7,4 -11,4 -1,0 -2,-1 -3,-4 -2,-4 -5,-13 -9,-27 0,-2 0,-3 0,-4 0,-1 1,-1 2,-1zm31 -11c2,0 5,0 8,2 8,2 13,5 17,9 3,3 5,7 5,13 0,3 -2,6 -5,9 -4,2 -8,4 -11,4 -1,0 -2,-2 -3,-4 -3,-4 -7,-14 -12,-28 0,-2 -1,-3 -1,-3 1,-2 1,-2 2,-2zm35 -4c3,0 6,1 10,2 9,3 16,7 21,11 4,3 6,8 6,15 0,3 -2,6 -5,9 -4,2 -8,4 -11,4 -2,0 -4,-2 -6,-4 -4,-5 -9,-16 -15,-31 -1,-2 -2,-3 -2,-4 0,-1 1,-2 2,-2zm-84 53c2,0 10,3 23,8 11,7 17,13 17,18 0,1 -1,2 -4,3 -5,3 -8,6 -9,9 -3,7 -5,12 -7,16 4,6 6,11 6,14 0,2 -1,3 -3,3 -26,0 -51,2 -76,6 -15,2 -25,4 -32,5 0,0 -1,1 -1,2 0,8 -1,13 -2,14 -1,1 -1,2 -1,3 0,1 1,2 2,2 6,0 43,-5 108,-14 5,0 13,3 23,9 13,8 19,15 19,19 0,1 -1,2 -3,4 -9,8 -14,14 -14,19 -4,30 -13,50 -28,61 -11,8 -21,12 -30,12 -3,0 -5,-2 -7,-4 -10,-14 -21,-28 -32,-40 -4,-5 -7,-7 -7,-8 0,-3 1,-4 2,-4 22,6 35,9 39,9 8,0 14,-3 18,-8 5,-4 8,-13 8,-25 0,-4 -2,-9 -7,-14 -4,-3 -8,-4 -11,-4 -16,0 -33,1 -49,3 -16,2 -27,4 -33,7 -7,1 -16,7 -29,17 -1,2 -2,3 -4,3 -3,0 -6,-3 -10,-10 -3,-4 -4,-9 -4,-16l0 -7c10,-9 15,-17 17,-22 1,-4 2,-11 2,-18 0,-3 -1,-6 -2,-9 -2,-2 -3,-4 -3,-6 0,-3 1,-4 3,-4 1,0 8,1 21,4 1,1 3,2 4,2 10,-1 24,-3 40,-5 20,-3 35,-7 47,-11 0,0 1,0 1,0 1,-1 1,-1 1,-2 1,-3 2,-5 2,-6 0,-6 -3,-9 -9,-9 -45,10 -71,16 -80,16 -4,0 -8,-2 -12,-4 -5,-3 -7,-6 -7,-10 0,-2 2,-3 7,-4 17,-1 31,-2 40,-4 11,-2 28,-7 52,-16 6,-3 10,-4 14,-4z"/>
  <g id="_663693136">
   <path class="fil1" d="M125 0l1474 0c68,0 125,56 125,125l0 665c0,69 -57,125 -125,125l-1474 0c-69,0 -125,-56 -125,-125l0 -665c0,-69 56,-125 125,-125z"/>
   <g>
    <path class="fil2" d="M981 284c0,0 -16,0 -16,0 0,0 -3,1 -3,1 0,0 -7,7 -7,7 -7,7 -9,11 -10,29 0,0 0,3 0,3 0,0 1,1 1,1 3,6 4,13 5,21 1,12 2,26 15,33 4,3 9,5 15,5 7,1 15,1 23,1 0,0 5,0 5,0l6 -17c7,-12 7,-34 5,-60 0,0 0,-12 0,-12 0,0 0,-3 0,-3 0,0 -9,-9 -9,-9 0,0 -30,0 -30,0zm0 190c-11,1 -20,2 -29,3 0,0 -7,1 -7,1 0,0 -2,39 -2,39 -1,24 -2,49 -2,74 0,0 0,6 0,6 0,0 13,4 13,4l4 2c8,4 15,4 23,2 8,-2 15,-6 22,-9 0,0 4,-2 4,-2 0,0 4,-2 4,-2 0,0 6,-71 6,-71 0,0 4,-48 4,-48 0,0 -8,0 -8,0 -12,-1 -23,0 -32,1zm-23 129l1 0 -2 -1 1 1zm-1 -1l0 0 0 0 0 0m24 108c-17,5 -37,6 -54,2 -3,-3 -9,-13 -9,-13 -16,-22 -32,-45 -39,-75 -2,-7 -3,-15 -3,-24 0,-20 4,-44 7,-58 4,-17 5,-36 5,-56 0,-49 -9,-101 -18,-132 -8,-27 -12,-49 -12,-67 0,-21 6,-36 18,-45 14,-10 66,-21 105,-28 0,0 21,-4 21,-4 0,0 25,-5 25,-5 12,-2 21,1 30,4 0,0 7,3 11,4 2,3 19,26 19,26 15,19 24,30 24,58 0,10 -1,21 -3,37 0,0 -2,8 -2,8 0,0 9,0 9,0 55,1 129,-5 170,-22 0,0 3,-1 3,-1 0,0 2,-5 2,-5 0,0 4,-17 4,-17 0,0 2,-8 2,-8 0,0 -21,0 -21,0 0,0 -2,1 -2,1 -14,10 -38,7 -60,4 0,0 -5,0 -8,-1 -3,-3 -8,-10 -8,-10 -9,-12 -16,-22 -18,-43 38,-23 75,-36 130,-48 0,0 5,0 5,0 0,0 8,-37 8,-37 5,-27 9,-54 31,-61 0,0 1,-1 1,-1 0,0 1,-1 1,-1 3,-2 6,-4 9,-5 5,-1 10,-1 18,-1 4,2 11,8 11,8 9,6 15,10 19,21 0,0 0,1 0,1 0,0 0,0 0,0 3,5 3,16 3,26 0,13 1,26 6,34 0,0 1,2 1,2 0,0 1,1 1,1 11,6 33,9 52,11 0,0 11,1 16,2 0,0 2,4 2,4 4,8 7,14 8,30 -6,6 -9,13 -13,20 -5,11 -10,21 -21,26 -8,4 -21,5 -34,5 -19,1 -39,2 -50,14 0,0 -17,17 -17,17 0,0 42,0 42,0 0,0 2,-1 2,-1 5,-4 15,-3 26,-3 9,1 18,1 27,0 0,0 1,-1 1,-1 44,-8 110,-21 140,1 10,7 15,17 17,31 0,0 0,2 0,2 0,0 0,5 0,5 0,4 0,10 0,14 0,0 0,5 0,5 -3,4 -21,21 -25,25 -6,-2 -22,-6 -22,-6 -22,-7 -40,-13 -75,-10 0,0 -7,0 -7,0 0,0 0,24 0,24 0,0 8,-1 8,-1 42,-1 64,4 75,19 4,5 5,9 7,19 -3,4 -6,8 -8,12 -3,5 -6,10 -10,14 -8,6 -24,6 -40,6 -23,1 -47,2 -56,17 -7,12 -10,31 -10,53 0,20 2,44 4,68 2,24 4,50 4,72 0,15 -1,29 -3,40 -9,38 -22,63 -46,87 -13,14 -33,31 -53,29 -4,0 -9,-2 -14,-5 0,0 -1,0 -1,0 0,0 -1,-1 -1,-1 -31,-9 -101,-129 -105,-176 0,0 1,-1 1,-1 0,0 6,-3 6,-3 15,18 65,59 98,65 6,1 12,1 16,0 3,-1 6,-2 8,-4 0,0 2,-1 2,-1 0,0 21,-64 21,-64 0,0 -19,0 -19,0 0,0 -2,4 -2,4 -3,4 -6,7 -10,9 -17,12 -46,9 -65,5 0,0 -1,-2 -1,-2 -21,-37 -45,-80 -65,-119 0,0 -2,-4 -2,-4 0,0 -20,1 -20,1 -9,1 -14,1 -23,0 0,0 -2,-4 -2,-4 -8,-13 -14,-24 -16,-44 3,-7 6,-16 8,-25 0,0 2,-8 3,-12 15,-4 29,-6 45,-8 16,-2 32,-4 49,-8 0,0 25,-7 25,-7 21,-6 41,-12 64,-16 11,-1 22,-2 33,-3 0,0 8,0 8,0 0,0 0,-37 0,-37 0,0 -9,1 -9,1 -11,1 -21,4 -32,6 -8,3 -16,5 -24,8 -16,5 -31,9 -46,12 -8,1 -16,0 -25,0 -14,0 -29,-1 -45,4 -7,2 -14,6 -23,10 -20,11 -45,23 -66,16 -3,-1 -6,-3 -9,-6 -4,-4 -9,-9 -17,-11 0,0 -10,-4 -10,-4 0,0 0,133 0,133 0,0 1,2 1,2 8,11 11,27 11,46 0,17 -2,36 -8,55 -8,29 -21,52 -33,58 0,0 -69,0 -69,0 0,0 -2,2 -2,2 -5,4 -11,7 -18,9zm34 -342l0 -1 -1 2 1 -1zm0 -1l0 0 0 0 0 0 0 0m-1 2l0 0 0 0zm350 183c-5,-6 -10,-11 -16,-17 0,0 -25,-24 -25,-24 0,0 12,-4 12,-4 0,0 29,-10 29,-10 0,0 11,-3 11,-3 0,0 21,0 21,0 0,0 9,8 9,8 0,0 0,14 0,14 1,26 2,47 -6,58 0,0 0,1 0,1 0,0 -12,12 -12,12 0,0 -5,-10 -5,-10 -5,-10 -11,-18 -18,-25z"/>
    <path class="fil2" d="M299 350c0,0 -13,1 -13,1 -23,1 -45,1 -63,5 0,0 -4,1 -4,1 0,0 -2,4 -2,4 -2,7 -37,152 -30,164 0,0 1,2 1,2 0,0 1,1 1,1 7,4 10,4 19,5 0,0 2,0 2,0 0,0 4,0 4,0 0,0 2,-2 2,-2 18,-16 49,-28 83,-36 36,-10 74,-16 102,-19 0,0 6,-1 6,-1 0,0 2,-36 2,-36 1,-32 3,-68 3,-102 0,0 0,-7 0,-7 0,0 -19,0 -19,0 0,0 -2,1 -2,1 -22,15 -57,18 -92,19zm0 272c-34,17 -68,31 -95,24 -10,-3 -18,-10 -27,-17 0,0 -10,-8 -10,-8 -38,-28 -45,-55 -45,-89 0,-8 0,-17 1,-26 0,-10 1,-21 1,-33 0,-19 -2,-40 -7,-63 -6,-30 -11,-68 -11,-103 0,-23 2,-44 6,-62 0,0 5,-3 5,-3 14,-9 40,-26 52,-21 0,0 0,0 0,0 0,0 1,1 1,1 10,1 14,6 19,10 4,4 8,8 15,11 15,6 42,-1 60,-6 0,0 9,-2 9,-2 0,0 26,0 26,0 0,0 117,0 117,0 0,0 0,-8 0,-8 0,-8 0,-15 0,-22 0,-82 11,-92 50,-127 0,0 12,-11 16,-14 9,0 15,0 19,3 0,0 1,0 1,0 0,0 1,1 1,1 42,12 48,53 48,108 0,13 0,26 0,40 0,0 -1,19 -1,19 0,0 29,0 29,0 0,0 24,1 24,1 85,2 132,7 185,56 0,5 0,21 0,21 0,10 1,20 1,31 0,22 -2,44 -9,55 -7,10 -16,19 -26,28 -18,17 -38,36 -41,68 0,0 0,3 0,3 0,0 2,2 2,2 7,7 10,15 10,22 0,0 0,7 0,7 -8,29 -61,57 -86,64 -10,4 -23,2 -36,-1 -8,-2 -15,-4 -23,-6 -21,-7 -43,-13 -63,-10 0,0 -4,0 -4,0 0,0 -2,5 -2,5 -2,7 -3,11 -4,23 0,0 -1,3 -1,3 0,0 2,2 2,2 4,6 5,18 5,30 0,10 -1,20 -1,29 0,0 -1,29 -1,29 0,0 0,5 0,5 0,38 -17,95 -47,127 -12,13 -25,20 -38,22 -17,-31 -21,-81 -21,-132 0,-22 1,-43 1,-63 1,-18 1,-35 1,-50 0,-5 0,-10 0,-15 0,0 0,-7 0,-7 0,0 -8,0 -8,0 -27,2 -59,17 -89,33 0,0 -11,5 -11,5zm238 -285c0,0 0,-6 0,-6 0,0 18,-3 18,-3 16,-3 37,-7 47,-14 0,0 1,-1 1,-1 0,0 1,-1 1,-1 0,0 58,0 58,0 0,0 17,18 17,18 0,0 0,3 0,3 0,53 -10,93 -31,131 0,0 -2,3 -2,3 0,0 -27,1 -27,1 -5,1 -11,1 -16,1 -28,2 -57,2 -71,-7 0,0 -2,-1 -2,-1 0,0 -1,-2 -1,-2 -2,-4 -3,-15 -3,-27 0,-26 4,-61 11,-75 0,0 0,-20 0,-20z"/>
   </g>
  </g>
  <path class="fil3" d="M2127 64c14,0 33,3 56,10 21,6 35,13 41,19 7,6 11,14 11,23 0,27 -17,41 -49,41 -10,0 -23,-12 -39,-36 -18,-27 -27,-44 -27,-51 0,-4 2,-6 7,-6zm121 93c6,0 14,3 27,8 14,10 22,19 22,27 0,7 -1,13 -3,19 -2,6 -6,10 -11,12 -20,5 -41,11 -62,16 15,1 30,4 44,9 19,6 29,13 29,20 0,2 -2,5 -6,10 -10,8 -17,15 -21,20 -10,12 -22,24 -37,35 8,-1 16,-2 23,-3 10,-2 19,-3 27,-3 27,3 41,19 41,49 0,6 -12,9 -36,11 -28,1 -59,4 -93,10 8,6 11,11 11,17 0,2 -1,5 -4,8 -2,6 -4,13 -4,23 8,-2 16,-4 23,-6 9,-3 18,-4 27,-4 12,0 25,5 40,15 13,8 19,20 19,34 0,14 -4,21 -10,21 -35,0 -68,1 -101,4 0,5 0,11 0,17 2,0 5,0 8,1 15,5 30,10 46,17 19,9 32,17 39,25 5,7 8,14 8,22 0,10 -4,21 -11,32 -7,9 -16,13 -28,13 -13,0 -22,-6 -27,-17 -4,-5 -10,-14 -18,-29 -7,-14 -12,-25 -16,-33 1,42 3,85 6,129 0,18 -8,39 -24,61 -16,19 -29,28 -39,28 -10,0 -18,-7 -24,-21 -9,-17 -31,-44 -66,-80 0,-4 4,-7 11,-7 20,15 35,22 45,22 8,0 14,-9 16,-29 3,-30 4,-76 4,-138 0,-2 0,-4 0,-6 -4,1 -8,2 -12,3 -25,3 -53,10 -82,19 -11,4 -17,5 -20,5 -9,0 -21,-6 -35,-20 -11,-10 -17,-18 -17,-25 0,-3 1,-4 3,-4 54,-9 100,-17 141,-25 7,-1 14,-3 20,-5 0,-9 -1,-20 -2,-30 0,-9 -1,-17 -3,-23 -40,7 -88,18 -143,33l-16 5c-4,0 -15,-7 -34,-20 -19,-18 -29,-34 -29,-50 0,-2 3,-3 7,-3 33,-1 66,-3 101,-6 43,-5 104,-15 183,-29 6,-15 11,-30 14,-46 3,-9 4,-17 4,-23 0,-4 -4,-13 -14,-28 -10,2 -21,4 -32,5 -30,6 -53,9 -68,9 -33,0 -55,-9 -64,-26 -9,-11 -13,-18 -13,-22 0,-4 3,-7 8,-7 60,-4 108,-10 143,-18 27,-7 50,-15 71,-23 4,-3 9,-5 14,-5zm-194 104c6,0 13,1 21,4 19,5 33,11 43,19 9,7 13,17 13,30 0,7 -4,14 -13,21 -8,7 -17,10 -26,10 -4,0 -7,-3 -11,-9 -8,-10 -18,-31 -31,-64 -2,-3 -3,-5 -3,-7 1,-3 3,-4 7,-4zm-17 285c3,0 5,3 8,10 8,18 13,32 13,42 0,20 -5,40 -14,62 -4,15 -10,27 -19,36 -5,6 -11,10 -16,10 -17,0 -30,-6 -41,-17 -5,-11 -8,-22 -8,-32 0,-6 2,-14 6,-23 36,-38 55,-64 58,-76 2,-8 6,-12 13,-12zm482 -430c9,0 33,7 70,20 27,14 41,26 41,36 0,5 -3,8 -10,10 -26,10 -44,15 -52,16 -11,3 -27,9 -47,16 -39,12 -68,21 -89,27l0 0c-2,10 -4,16 -4,19 -3,38 -7,73 -10,106 51,-12 104,-27 159,-44 16,-5 30,-8 43,-8 13,0 29,5 47,16 17,10 26,22 26,36 0,12 -7,19 -21,21 -18,1 -37,3 -59,5 -10,2 -21,3 -31,5 11,6 17,11 17,17 0,6 -1,13 -3,20 -10,12 -14,34 -14,68 0,118 -2,194 -6,229 -3,36 -10,65 -20,87 -11,22 -22,33 -33,33 -11,0 -19,-12 -23,-35 -6,-8 -9,-124 -9,-346 0,-22 -2,-42 -7,-59 -18,3 -36,5 -54,7 -5,2 -9,3 -12,3 -2,-1 -5,-2 -7,-3 -4,26 -8,51 -12,73 -14,52 -29,97 -47,135 -16,32 -38,62 -65,89 -3,4 -7,5 -11,5l0 -4c11,-30 19,-62 25,-95 14,-58 23,-117 27,-177 5,-59 7,-117 7,-176 0,-16 -3,-28 -9,-35 -5,-8 -8,-13 -8,-17 0,-8 3,-13 10,-13 16,0 39,4 69,11 10,1 17,4 23,7 16,-8 29,-16 41,-26 15,-10 27,-22 37,-37 5,-7 10,-18 14,-32 0,-7 3,-10 7,-10z"/>
  <path id="1" class="fil3" d="M2845 123c15,0 33,4 53,14 36,-4 75,-13 117,-25 9,0 26,7 51,20 31,18 46,31 46,40 0,3 -1,6 -4,9 -10,17 -19,36 -24,58 -6,26 -13,57 -24,92 -4,11 -13,20 -25,28 -9,4 -16,7 -23,7 -3,0 -6,-2 -9,-4 -18,1 -36,2 -54,5 -14,3 -25,4 -31,5 -4,144 -10,260 -17,348 -2,11 -8,22 -18,33 -10,10 -19,15 -27,15 -15,0 -27,-12 -35,-36 -10,-19 -14,-33 -14,-43 0,0 1,-5 3,-15 15,-57 24,-102 27,-135 8,-74 11,-166 11,-278 -2,-59 -9,-97 -19,-114 -1,-5 -1,-8 -1,-11 0,-9 6,-13 17,-13zm75 200c2,-1 5,-1 7,-2 17,-3 29,-8 39,-13 3,-1 6,-2 7,-2 8,0 15,2 20,6 7,-26 12,-53 15,-79 2,-20 4,-38 4,-55 0,-14 -5,-21 -14,-21 -31,7 -56,11 -75,12 -1,12 -2,33 -2,63 6,-2 12,-5 17,-7 9,-4 15,-5 18,-5 26,1 38,11 38,31 0,5 -3,8 -11,10 -9,1 -21,2 -36,5 -9,2 -18,2 -26,2 -1,19 -1,37 -1,55zm262 -227c9,0 21,1 36,5 5,1 9,2 13,3 5,0 9,-1 11,-2 28,-6 56,-13 83,-21 13,-4 23,-9 30,-14 3,-2 5,-3 7,-3 10,0 29,5 57,16 31,16 47,30 47,43 0,3 0,7 -1,12 -8,35 -13,104 -13,206 0,22 2,94 6,218 3,95 5,159 5,192 0,15 -9,36 -28,63 -22,25 -41,37 -55,37 -72,-75 -108,-114 -108,-118 0,-4 1,-6 3,-6 34,14 57,20 66,20 11,0 17,-16 19,-48 6,-47 9,-146 9,-297 0,-26 0,-55 -2,-89 -23,2 -46,3 -68,6 -28,3 -45,5 -51,5 -5,7 -12,10 -21,10 -5,0 -13,-7 -24,-22 -7,-11 -11,-17 -11,-19l0 -32c-1,-76 -8,-122 -21,-137 -4,-7 -7,-12 -7,-15 0,-9 6,-13 18,-13zm74 185c10,-1 21,-2 32,-4 25,-3 45,-7 59,-10 5,-2 8,-2 12,-2 2,0 4,0 6,1 -1,-37 -3,-78 -6,-123 0,-6 -7,-9 -21,-9 -7,0 -17,1 -31,2 -18,4 -37,9 -58,16l3 42c10,-4 20,-7 29,-12 11,-5 18,-7 22,-7 30,1 45,14 45,38 0,6 -4,10 -14,11 -11,1 -25,3 -42,6 -11,2 -21,4 -30,4 -3,0 -6,0 -8,0l2 47zm-12 57c5,0 13,2 25,7 14,9 20,17 20,24 0,7 -1,13 -3,19 -2,7 -6,11 -11,12 -15,4 -31,7 -46,9 13,5 19,11 19,16 0,6 -1,11 -4,17 -9,10 -14,30 -14,60 0,31 0,60 0,86 4,-2 8,-3 12,-4 12,-2 23,-3 33,-3 11,0 23,4 36,12 11,7 17,17 17,29 0,14 -4,21 -11,21 -30,0 -59,1 -88,2 -1,26 -2,46 -4,59 -2,32 -8,57 -16,77 -9,19 -18,29 -27,29 -10,0 -16,-11 -19,-32 -4,-4 -6,-47 -7,-127 -23,2 -45,4 -65,7 -32,3 -66,9 -104,18 -12,4 -20,5 -24,5 -8,0 -18,-6 -30,-17 -10,-9 -15,-17 -15,-24 0,-3 1,-4 3,-4 36,-4 70,-8 100,-13l-5 -101c0,-26 -2,-50 -4,-72 -1,-6 -3,-12 -5,-17 -18,-3 -30,-11 -37,-23 -7,-11 -10,-19 -10,-23 0,-3 1,-4 3,-4 75,-4 133,-10 175,-17 35,-7 64,-15 89,-24 6,-3 11,-4 17,-4zm-166 277c6,0 12,-1 18,-2 19,-4 39,-7 59,-11 -1,-37 -1,-80 -1,-129 0,-20 -3,-37 -8,-51 -10,2 -20,3 -30,5 -12,2 -23,3 -32,4 5,4 8,7 8,11 0,2 -1,3 -2,5 -3,4 -4,11 -5,22 13,-4 21,-7 26,-8 1,-1 2,-2 5,-2 23,0 34,7 34,21 0,8 -3,14 -10,18 -13,3 -30,6 -51,10 -1,0 -3,0 -4,0 -1,0 -2,0 -3,0l-1 31c17,-5 28,-8 33,-10 2,0 4,0 5,0 23,0 35,7 35,20 0,8 -4,14 -11,18 -13,3 -32,7 -54,10 -1,1 -3,1 -4,1 -2,0 -3,0 -5,-1l-2 38z"/>
  <path id="2" class="fil3" d="M3709 123c18,0 37,5 59,17 21,10 31,22 31,35 0,4 -2,7 -7,11 -25,31 -57,82 -98,153 -1,0 -2,1 -2,2l58 -5c10,-19 18,-35 25,-49 4,-9 6,-20 7,-33 0,-13 6,-20 17,-20 8,0 24,7 46,22 20,11 30,22 30,33 0,3 -2,6 -8,10 -20,19 -43,44 -70,76 -27,31 -53,67 -78,108 24,-7 48,-13 71,-19 -3,-9 -6,-18 -9,-27 -2,-4 -3,-6 -3,-8 2,-5 4,-8 7,-8 6,0 13,1 21,4 19,7 34,14 43,23 9,9 13,20 13,36 0,8 -4,16 -13,24 -10,7 -20,10 -29,10 -3,0 -7,-3 -10,-9 -2,-4 -6,-11 -10,-19l-1 0c-28,8 -52,18 -72,30 -20,12 -34,22 -42,31 -6,4 -9,5 -11,5 -7,0 -17,-8 -28,-26 -9,-12 -13,-21 -13,-28 0,-6 3,-12 11,-18 6,-3 11,-7 15,-12 8,-7 25,-31 51,-71 5,-8 10,-16 14,-23 -30,12 -53,26 -67,43 -16,0 -28,-7 -37,-22 -10,-9 -15,-21 -15,-37 0,-5 1,-10 3,-14 15,-11 31,-35 49,-72 8,-18 18,-50 31,-94 5,-16 7,-25 7,-28l0 -18c0,-9 5,-13 14,-13zm-101 465c8,0 16,2 26,7 23,11 41,24 53,39 10,14 15,35 15,61 0,9 -5,18 -16,27 -11,8 -22,11 -33,11 -4,0 -9,-5 -13,-15 -8,-17 -20,-54 -35,-111 -3,-5 -4,-10 -4,-12 1,-5 3,-7 7,-7zm104 -21c6,0 12,1 20,3 16,7 30,14 39,22 7,7 11,19 11,34 0,7 -4,14 -12,22 -9,6 -18,9 -26,9 -3,0 -6,-3 -9,-9 -7,-11 -16,-34 -27,-69 -2,-4 -3,-6 -3,-9 2,-2 4,-3 7,-3zm80 -35c5,0 11,1 18,4 17,5 29,12 38,19 7,6 10,16 10,29 0,8 -4,15 -11,22 -9,7 -18,10 -27,10 -3,0 -6,-3 -8,-9 -6,-10 -14,-31 -25,-64 -1,-3 -2,-5 -2,-7 1,-3 3,-4 7,-4zm90 -340c14,0 31,5 50,14 19,-1 34,-3 44,-5 63,-7 125,-16 187,-26 27,-4 50,-10 68,-18 7,-2 12,-3 17,-3 8,0 26,5 51,15 30,15 45,29 45,41 0,2 -1,6 -2,10 -8,29 -12,86 -12,172 0,17 3,76 8,176 4,76 6,129 6,156 0,13 -9,32 -26,58 -20,23 -37,35 -50,35 -63,-71 -94,-108 -94,-111 0,-5 1,-7 3,-7 29,14 48,21 56,21 8,0 12,-13 15,-40 4,-37 6,-117 6,-238 0,-52 -4,-123 -11,-215 0,-5 -5,-7 -17,-7 -20,0 -49,1 -88,5 -54,5 -113,13 -178,25 -1,13 -1,30 -1,53 -1,71 -1,134 -2,192 1,-1 1,-1 2,-1 43,-5 81,-10 114,-15 3,0 5,-1 7,-1 -8,-10 -20,-30 -35,-61 -2,0 -4,0 -6,0 -28,0 -45,-7 -54,-23 -6,-10 -9,-18 -9,-22 0,-2 1,-3 4,-3 45,-2 82,-6 112,-10 10,-21 18,-40 24,-59 4,-11 6,-21 6,-28 0,-4 -5,-13 -14,-27 0,-5 6,-8 17,-8 21,0 40,4 59,11 19,6 28,13 28,20 0,3 -2,7 -8,12 -9,10 -17,18 -22,23 -12,15 -26,30 -43,44 14,-4 27,-8 39,-13 4,-2 9,-3 13,-3 4,0 11,2 21,6 12,9 18,16 18,22 0,6 -1,11 -3,16 -2,6 -4,10 -8,12 -37,9 -77,17 -117,23 -8,1 -14,2 -19,3 15,4 28,9 36,16 9,6 13,15 13,27 0,5 -1,9 -5,14 15,-3 29,-5 42,-8 8,-2 16,-3 22,-3 10,0 21,4 33,12 11,6 16,15 16,27 0,11 -3,17 -10,17 -54,0 -103,2 -150,7 -5,0 -10,0 -15,0 8,6 12,10 12,14 0,2 -1,2 -2,3 -10,6 -16,17 -16,31 0,8 1,15 2,19 3,8 15,12 36,12 7,0 22,-2 44,-6 5,-2 10,-5 15,-9 2,-1 4,-2 8,-2 19,0 34,3 46,9 9,3 13,8 13,16 0,16 -5,25 -14,27 -30,12 -53,18 -71,18 -52,0 -86,-4 -103,-13 -14,-6 -24,-16 -29,-31 -4,-10 -6,-23 -6,-40 0,-15 0,-28 -1,-38 -1,0 -1,0 -2,0 -7,0 -17,-5 -28,-15 -6,-5 -10,-10 -12,-15 -1,80 -3,147 -5,200 -2,10 -8,22 -17,35 -11,9 -20,14 -28,14 -15,0 -27,-12 -36,-37 -9,-18 -13,-33 -13,-43 1,0 1,-4 2,-11 10,-46 16,-82 19,-109 5,-58 7,-131 7,-220 -3,-59 -9,-97 -19,-114 -1,-5 -2,-9 -2,-10 0,-10 6,-15 17,-15zm112 76c5,0 12,1 20,3 19,6 34,12 44,18 8,6 12,16 12,29 0,7 -5,15 -13,23 -9,8 -19,11 -29,11 -3,0 -7,-3 -10,-9 -7,-9 -17,-29 -29,-60 -2,-3 -2,-6 -2,-7 1,-5 3,-8 7,-8z"/>
 </g>
</svg>
